<?xml version="1.0" standalone="no"?>
<!DOCTYPE svg PUBLIC "-//W3C//DTD SVG 20010904//EN" "http://www.w3.org/TR/2001/REC-SVG-20010904/DTD/svg10.dtd">
<svg width="40px" height="30px" version="1.0" xmlns="http://www.w3.org/2000/svg"
    viewBox="0 0 192.000000 192.000000"
    preserveAspectRatio="xMidYMid meet">

   <defs>
    <linearGradient id="myGradient" x1="0%" y1="0%" x2="100%" y2="50%">
      <stop offset="0%" stop-color="#fc20fc" />
      <stop offset="100%" stop-color="#8300ff" />
    </linearGradient>
  </defs>

  <g transform="translate(0.000000,192.000000) scale(0.100000,-0.100000)" fill="url(#myGradient)" stroke="none">
        <path
            d="M1138 1650 c-32 -20 -41 -49 -24 -74 14 -22 25 -24 133 -31 157 -9
198 -20 226 -59 20 -29 22 -44 25 -203 4 -166 -1 -199 -25 -160 -4 8 -22 24
-39 36 -26 19 -35 21 -53 12 -27 -15 -44 -47 -34 -65 13 -24 160 -173 187
-191 24 -16 28 -16 50 -1 47 30 196 186 196 204 0 22 -40 62 -61 62 -8 0 -30
-16 -49 -35 -19 -19 -38 -35 -42 -35 -5 0 -8 44 -8 98 0 138 -17 270 -41 320
-25 51 -72 89 -135 108 -62 18 -283 29 -306 14z" />
        <path
            d="M470 1630 c-64 -21 -123 -81 -140 -139 -18 -61 -30 -254 -30 -493 l0
-228 -30 0 c-38 0 -79 -19 -107 -49 -22 -23 -23 -31 -23 -201 0 -195 1 -200
67 -234 25 -12 61 -16 158 -16 143 0 167 8 212 67 28 36 28 38 28 183 0 146 0
147 -29 184 -31 42 -78 66 -126 66 l-31 0 3 344 c3 332 4 346 24 373 31 42 82
54 262 60 157 6 164 7 179 30 14 21 14 25 -1 48 l-16 25 -173 0 c-142 -1 -182
-4 -227 -20z m21 -987 c16 -18 25 -153 14 -209 -9 -52 -53 -68 -169 -62 -119
6 -126 14 -126 147 0 140 1 141 149 141 98 0 121 -3 132 -17z" />
        <path
            d="M850 769 c-50 -10 -83 -31 -114 -73 -19 -25 -21 -42 -21 -176 0 -165
5 -180 75 -227 30 -21 44 -23 170 -23 126 0 140 2 171 23 18 12 44 38 56 56
21 31 23 45 23 171 0 126 -2 140 -22 170 -13 18 -34 41 -48 51 -47 35 -187 48
-290 28z m234 -125 c23 -22 23 -225 1 -248 -32 -31 -209 -32 -251 -1 -17 12
-19 28 -19 125 0 141 -1 140 146 140 84 0 111 -3 123 -16z" />
        <path
            d="M1447 771 c-46 -10 -84 -37 -114 -81 -21 -30 -23 -44 -23 -170 0
-126 2 -140 23 -170 47 -69 98 -89 232 -90 96 0 144 12 185 47 55 46 64 75 64
213 0 113 -2 129 -23 166 -37 65 -83 86 -204 90 -56 1 -119 -1 -140 -5z m235
-128 c15 -14 18 -32 18 -121 0 -142 0 -142 -138 -142 -142 0 -142 0 -142 141
0 140 -1 139 137 139 85 0 110 -3 125 -17z" />
    </g>
</svg>