<?xml version="1.0" encoding="UTF-8"?>
<svg xmlns="http://www.w3.org/2000/svg" xmlns:xlink="http://www.w3.org/1999/xlink" width="60px" height="80px" viewBox="0 0 80 80" version="1.1">
<g id="surface1">
<path style=" stroke:none;fill-rule:nonzero;fill:rgb(7.843138%,55.686277%,60.392159%);fill-opacity:1;" d="M 63.773438 72.734375 C 64.359375 72.734375 66.054688 72.617188 66.5 72.851562 C 66.277344 74 65.960938 74.980469 64.945312 75.664062 C 63.980469 76.308594 62.636719 76.378906 61.519531 76.238281 C 61.71875 76.015625 62.519531 75.867188 62.957031 75.457031 C 63.75 74.710938 63.757812 73.746094 63.773438 72.734375 Z M 63.773438 72.734375 "/>
<path style=" stroke:none;fill-rule:nonzero;fill:rgb(23.137255%,74.117649%,72.941178%);fill-opacity:1;" d="M 63.738281 23.757812 L 69.441406 23.757812 C 70.328125 23.75 71.230469 23.777344 72.113281 23.71875 L 68.402344 56.398438 L 67.140625 67.527344 C 66.9375 69.296875 66.796875 71.09375 66.5 72.851562 C 66.054688 72.617188 64.359375 72.734375 63.773438 72.734375 C 63.824219 70.265625 63.777344 67.785156 63.777344 65.3125 L 63.769531 50.960938 L 63.765625 37.800781 C 63.765625 35.460938 63.8125 33.117188 63.753906 30.78125 C 63.796875 29.832031 63.769531 28.886719 63.765625 27.9375 C 63.765625 26.542969 63.757812 25.148438 63.738281 23.757812 Z M 63.738281 23.757812 "/>
<path style=" stroke:none;fill-rule:nonzero;fill:rgb(7.843138%,55.686277%,60.392159%);fill-opacity:1;" d="M 7.875 23.753906 C 10.671875 23.726562 13.464844 23.722656 16.257812 23.75 L 16.304688 55.355469 L 16.308594 66.316406 C 16.308594 68.433594 16.277344 70.554688 16.328125 72.671875 C 16.390625 73.765625 16.449219 74.738281 17.324219 75.511719 C 17.691406 75.832031 18.148438 75.945312 18.527344 76.214844 C 17.265625 76.285156 15.917969 76.308594 14.871094 75.492188 C 14.292969 75.035156 13.914062 74.414062 13.742188 73.691406 C 13.585938 73.023438 13.535156 72.316406 13.453125 71.632812 L 13.082031 68.410156 L 11.839844 57.640625 Z M 7.875 23.753906 "/>
<path style=" stroke:none;fill-rule:nonzero;fill:rgb(14.901961%,24.705882%,42.745098%);fill-opacity:1;" d="M 63.753906 30.78125 C 63.8125 33.117188 63.765625 35.460938 63.765625 37.800781 L 63.769531 50.960938 L 63.777344 65.3125 C 63.777344 67.785156 63.824219 70.265625 63.773438 72.734375 C 63.757812 73.746094 63.75 74.710938 62.957031 75.457031 C 62.519531 75.867188 61.71875 76.015625 61.519531 76.238281 C 60.59375 76.285156 59.65625 76.257812 58.730469 76.257812 L 53.964844 76.253906 L 39.328125 76.25 L 25.546875 76.238281 L 21.070312 76.238281 C 20.222656 76.238281 19.367188 76.265625 18.527344 76.214844 C 18.148438 75.945312 17.691406 75.832031 17.324219 75.511719 C 16.449219 74.738281 16.390625 73.765625 16.328125 72.671875 C 17.707031 72.617188 19.082031 72.214844 20.40625 71.847656 C 24.792969 70.613281 28.9375 68.90625 32.832031 66.53125 C 33.484375 66.132812 34.207031 65.734375 34.785156 65.234375 L 34.777344 65.210938 C 35.722656 64.648438 37.027344 63.480469 37.820312 62.710938 C 38.152344 63.09375 38.535156 63.425781 38.992188 63.648438 C 39.53125 63.90625 40.140625 64.011719 40.714844 63.796875 C 42.523438 63.117188 43.398438 60.234375 44.117188 58.601562 C 44.582031 58.683594 45.046875 58.746094 45.515625 58.796875 C 47.152344 58.957031 49.351562 58.972656 50.675781 57.863281 C 51.105469 57.503906 51.5 56.933594 51.539062 56.359375 C 51.636719 54.96875 49.234375 52.410156 48.359375 51.367188 C 49.636719 49.953125 50.71875 48.605469 51.375 46.785156 C 52.046875 46.25 52.617188 45.597656 53.199219 44.96875 C 53.703125 44.425781 54.214844 43.886719 54.738281 43.363281 L 54.769531 48.175781 C 54.765625 49.421875 54.722656 50.683594 54.765625 51.925781 C 57.910156 47.710938 60.324219 42.625 61.949219 37.628906 C 62.453125 36.082031 62.90625 34.492188 63.246094 32.902344 C 63.332031 32.503906 63.5625 31.050781 63.753906 30.78125 Z M 63.753906 30.78125 "/>
<path style=" stroke:none;fill-rule:nonzero;fill:rgb(86.274511%,27.450982%,36.078432%);fill-opacity:1;" d="M 54.738281 43.363281 L 54.769531 48.175781 C 54.765625 49.421875 54.722656 50.683594 54.765625 51.925781 C 54.707031 53.398438 54.746094 54.875 54.742188 56.347656 C 54.742188 57.277344 54.679688 58.234375 54.757812 59.160156 C 49.917969 62.257812 44.980469 65.195312 40.09375 68.222656 C 38.941406 67.640625 37.808594 67.019531 36.699219 66.355469 C 36.070312 65.984375 35.46875 65.5 34.785156 65.234375 L 34.777344 65.210938 C 35.722656 64.648438 37.027344 63.480469 37.820312 62.710938 C 38.152344 63.09375 38.535156 63.425781 38.992188 63.648438 C 39.53125 63.90625 40.140625 64.011719 40.714844 63.796875 C 42.523438 63.117188 43.398438 60.234375 44.117188 58.601562 C 44.582031 58.683594 45.046875 58.746094 45.515625 58.796875 C 47.152344 58.957031 49.351562 58.972656 50.675781 57.863281 C 51.105469 57.503906 51.5 56.933594 51.539062 56.359375 C 51.636719 54.96875 49.234375 52.410156 48.359375 51.367188 C 49.636719 49.953125 50.71875 48.605469 51.375 46.785156 C 52.046875 46.25 52.617188 45.597656 53.199219 44.96875 C 53.703125 44.425781 54.214844 43.886719 54.738281 43.363281 Z M 54.738281 43.363281 "/>
<path style=" stroke:none;fill-rule:nonzero;fill:rgb(24.705882%,35.294119%,53.725493%);fill-opacity:1;" d="M 27.578125 16.269531 C 27.675781 15.398438 27.667969 14.523438 27.832031 13.65625 C 28.351562 10.933594 30.003906 8.292969 32.167969 6.566406 C 34.753906 4.511719 38.019531 3.464844 41.316406 3.847656 C 41.417969 3.859375 41.523438 3.875 41.625 3.886719 C 41.730469 3.902344 41.832031 3.917969 41.933594 3.9375 C 42.035156 3.957031 42.136719 3.972656 42.238281 3.992188 C 42.34375 4.011719 42.445312 4.035156 42.546875 4.054688 C 42.644531 4.078125 42.746094 4.101562 42.847656 4.125 C 42.949219 4.152344 43.050781 4.175781 43.152344 4.203125 C 43.253906 4.230469 43.351562 4.257812 43.449219 4.289062 C 43.550781 4.320312 43.648438 4.351562 43.75 4.382812 C 43.847656 4.414062 43.945312 4.445312 44.042969 4.480469 C 44.140625 4.515625 44.238281 4.550781 44.335938 4.589844 C 44.433594 4.625 44.53125 4.664062 44.628906 4.703125 C 44.722656 4.742188 44.820312 4.78125 44.914062 4.824219 C 45.011719 4.867188 45.105469 4.910156 45.199219 4.953125 C 45.292969 4.996094 45.386719 5.039062 45.480469 5.089844 C 45.570312 5.132812 45.664062 5.179688 45.757812 5.230469 C 45.847656 5.277344 45.9375 5.328125 46.03125 5.378906 C 46.121094 5.429688 46.210938 5.480469 46.300781 5.535156 C 46.390625 5.585938 46.480469 5.640625 46.566406 5.695312 C 46.65625 5.75 46.742188 5.804688 46.828125 5.863281 C 46.914062 5.921875 47.003906 5.976562 47.089844 6.039062 C 47.171875 6.097656 47.257812 6.15625 47.34375 6.21875 C 47.425781 6.28125 47.507812 6.34375 47.589844 6.40625 C 47.671875 6.46875 47.753906 6.535156 47.835938 6.601562 C 47.917969 6.664062 47.996094 6.730469 48.074219 6.796875 C 48.152344 6.863281 48.230469 6.933594 48.308594 7.003906 C 48.386719 7.070312 48.464844 7.140625 48.539062 7.214844 C 48.617188 7.285156 48.691406 7.355469 48.765625 7.429688 C 48.839844 7.503906 48.914062 7.578125 48.984375 7.652344 C 49.054688 7.726562 49.128906 7.800781 49.199219 7.878906 C 49.269531 7.953125 49.335938 8.03125 49.40625 8.109375 C 49.472656 8.1875 49.542969 8.265625 49.609375 8.347656 C 49.675781 8.425781 49.742188 8.507812 49.804688 8.589844 C 49.886719 8.691406 49.964844 8.800781 50.042969 8.90625 C 50.121094 9.011719 50.199219 9.117188 50.273438 9.226562 C 50.347656 9.335938 50.417969 9.445312 50.492188 9.558594 C 50.5625 9.667969 50.632812 9.78125 50.699219 9.894531 C 50.765625 10.007812 50.832031 10.121094 50.898438 10.238281 C 50.960938 10.351562 51.023438 10.46875 51.082031 10.585938 C 51.144531 10.703125 51.199219 10.820312 51.257812 10.941406 C 51.3125 11.0625 51.367188 11.179688 51.421875 11.300781 C 51.472656 11.421875 51.523438 11.542969 51.574219 11.667969 C 51.621094 11.789062 51.667969 11.914062 51.710938 12.035156 C 51.757812 12.160156 51.800781 12.285156 51.84375 12.410156 C 51.882812 12.535156 51.921875 12.664062 51.957031 12.789062 C 51.996094 12.914062 52.03125 13.042969 52.0625 13.171875 C 52.097656 13.300781 52.128906 13.425781 52.15625 13.554688 C 52.183594 13.683594 52.210938 13.8125 52.238281 13.941406 C 52.261719 14.074219 52.285156 14.203125 52.304688 14.332031 C 52.402344 14.984375 52.386719 15.644531 52.476562 16.292969 C 53.140625 16.214844 53.855469 16.261719 54.523438 16.261719 L 58.289062 16.265625 L 60.410156 16.257812 C 60.902344 16.257812 61.425781 16.222656 61.914062 16.308594 C 62.1875 16.359375 62.464844 16.457031 62.695312 16.621094 C 63.152344 16.878906 63.476562 17.28125 63.625 17.785156 C 63.832031 18.488281 63.722656 19.367188 63.714844 20.097656 L 63.707031 22.582031 C 63.703125 22.949219 63.671875 23.394531 63.738281 23.757812 C 63.757812 25.148438 63.765625 26.542969 63.765625 27.9375 C 63.769531 28.886719 63.796875 29.832031 63.753906 30.78125 C 63.5625 31.050781 63.332031 32.503906 63.246094 32.902344 C 62.90625 34.492188 62.453125 36.082031 61.949219 37.628906 C 60.324219 42.625 57.910156 47.710938 54.765625 51.925781 C 54.722656 50.683594 54.765625 49.421875 54.769531 48.175781 L 54.738281 43.363281 C 54.214844 43.886719 53.703125 44.425781 53.199219 44.96875 C 52.617188 45.597656 52.046875 46.25 51.375 46.785156 C 50.71875 48.605469 49.636719 49.953125 48.359375 51.367188 C 49.234375 52.410156 51.636719 54.96875 51.539062 56.359375 C 51.5 56.933594 51.105469 57.503906 50.675781 57.863281 C 49.351562 58.972656 47.152344 58.957031 45.515625 58.796875 C 45.046875 58.746094 44.582031 58.683594 44.117188 58.601562 C 43.398438 60.234375 42.523438 63.117188 40.714844 63.796875 C 40.140625 64.011719 39.53125 63.90625 38.992188 63.648438 C 38.535156 63.425781 38.152344 63.09375 37.820312 62.710938 C 37.027344 63.480469 35.722656 64.648438 34.777344 65.210938 L 34.785156 65.234375 C 34.207031 65.734375 33.484375 66.132812 32.832031 66.53125 C 28.9375 68.90625 24.792969 70.613281 20.40625 71.847656 C 19.082031 72.214844 17.707031 72.617188 16.328125 72.671875 C 16.277344 70.554688 16.308594 68.433594 16.308594 66.316406 L 16.304688 55.355469 L 16.257812 23.75 C 16.246094 22.589844 16.238281 21.425781 16.242188 20.265625 C 16.238281 19.492188 16.1875 18.679688 16.269531 17.910156 C 16.328125 17.363281 16.566406 16.96875 16.996094 16.628906 C 17.207031 16.457031 17.46875 16.339844 17.738281 16.300781 C 18.945312 16.121094 20.65625 16.257812 21.925781 16.257812 L 25.546875 16.253906 C 26.21875 16.253906 26.90625 16.222656 27.578125 16.269531 Z M 29.992188 16.273438 C 30.023438 18.398438 30 20.527344 29.996094 22.652344 C 30.75 22.664062 31.484375 22.605469 32.238281 22.582031 C 33.054688 22.554688 33.878906 22.574219 34.703125 22.570312 L 50.050781 22.566406 C 50.078125 21.140625 50.054688 19.707031 50.054688 18.28125 C 50.050781 17.605469 50.03125 16.925781 50.074219 16.25 C 50.101562 15.726562 50.023438 15.207031 49.925781 14.691406 C 49.554688 12.710938 48.644531 10.929688 47.292969 9.4375 C 47.242188 9.375 47.1875 9.316406 47.132812 9.261719 C 47.082031 9.203125 47.023438 9.144531 46.96875 9.089844 C 46.914062 9.035156 46.855469 8.976562 46.800781 8.921875 C 46.742188 8.867188 46.6875 8.8125 46.628906 8.757812 C 46.570312 8.703125 46.507812 8.652344 46.449219 8.597656 C 46.390625 8.546875 46.328125 8.496094 46.269531 8.445312 C 46.207031 8.394531 46.144531 8.34375 46.082031 8.292969 C 46.023438 8.246094 45.957031 8.195312 45.894531 8.148438 C 45.832031 8.101562 45.769531 8.054688 45.703125 8.007812 C 45.640625 7.960938 45.574219 7.917969 45.507812 7.871094 C 45.441406 7.828125 45.375 7.785156 45.308594 7.742188 C 45.242188 7.699219 45.175781 7.65625 45.105469 7.613281 C 45.039062 7.574219 44.972656 7.53125 44.902344 7.492188 C 44.832031 7.453125 44.765625 7.414062 44.695312 7.378906 C 44.625 7.339844 44.554688 7.304688 44.484375 7.265625 C 44.414062 7.230469 44.34375 7.195312 44.269531 7.160156 C 44.199219 7.125 44.128906 7.09375 44.054688 7.058594 C 43.984375 7.027344 43.910156 6.996094 43.839844 6.964844 C 43.765625 6.933594 43.691406 6.902344 43.617188 6.875 C 43.542969 6.847656 43.46875 6.816406 43.394531 6.789062 C 43.320312 6.761719 43.246094 6.738281 43.167969 6.710938 C 43.09375 6.6875 43.019531 6.660156 42.941406 6.640625 C 42.867188 6.613281 42.792969 6.589844 42.714844 6.570312 C 42.636719 6.550781 42.5625 6.527344 42.484375 6.507812 C 42.40625 6.488281 42.332031 6.46875 42.253906 6.453125 C 42.175781 6.433594 42.097656 6.417969 42.019531 6.402344 C 41.941406 6.386719 41.863281 6.371094 41.785156 6.355469 C 41.707031 6.34375 41.628906 6.328125 41.550781 6.316406 C 41.472656 6.304688 41.394531 6.292969 41.316406 6.285156 C 41.238281 6.273438 41.160156 6.265625 41.082031 6.257812 C 41 6.25 40.921875 6.242188 40.84375 6.234375 C 40.761719 6.230469 40.683594 6.222656 40.605469 6.21875 C 40.523438 6.214844 40.4375 6.210938 40.355469 6.210938 C 40.273438 6.207031 40.1875 6.207031 40.105469 6.207031 C 40.019531 6.207031 39.9375 6.207031 39.855469 6.207031 C 39.769531 6.210938 39.6875 6.214844 39.601562 6.21875 C 39.519531 6.222656 39.4375 6.226562 39.351562 6.230469 C 39.269531 6.238281 39.1875 6.246094 39.101562 6.253906 C 39.019531 6.261719 38.9375 6.269531 38.855469 6.28125 C 38.769531 6.289062 38.6875 6.300781 38.605469 6.316406 C 38.523438 6.328125 38.441406 6.339844 38.359375 6.355469 C 38.273438 6.367188 38.191406 6.386719 38.113281 6.402344 C 38.027344 6.417969 37.949219 6.433594 37.867188 6.453125 C 37.785156 6.472656 37.703125 6.492188 37.621094 6.511719 C 37.539062 6.53125 37.460938 6.550781 37.378906 6.574219 C 37.300781 6.597656 37.21875 6.621094 37.136719 6.644531 C 37.058594 6.667969 36.980469 6.695312 36.902344 6.71875 C 36.820312 6.746094 36.742188 6.773438 36.664062 6.804688 C 36.585938 6.832031 36.507812 6.859375 36.429688 6.890625 C 36.351562 6.921875 36.273438 6.953125 36.195312 6.984375 C 36.117188 7.015625 36.042969 7.050781 35.964844 7.082031 C 35.886719 7.117188 35.8125 7.152344 35.738281 7.1875 C 35.664062 7.222656 35.585938 7.261719 35.511719 7.296875 C 35.4375 7.335938 35.363281 7.375 35.292969 7.414062 C 35.21875 7.453125 35.144531 7.496094 35.070312 7.535156 C 35 7.578125 34.925781 7.621094 34.855469 7.664062 C 34.785156 7.707031 34.714844 7.75 34.640625 7.792969 C 34.570312 7.839844 34.503906 7.886719 34.433594 7.933594 C 34.363281 7.980469 34.296875 8.027344 34.226562 8.074219 C 34.160156 8.125 34.089844 8.171875 34.023438 8.222656 C 33.957031 8.273438 33.890625 8.324219 33.824219 8.375 C 33.761719 8.425781 33.695312 8.480469 33.628906 8.535156 C 33.566406 8.585938 33.503906 8.640625 33.4375 8.695312 C 33.375 8.75 33.3125 8.804688 33.253906 8.863281 C 31.386719 10.550781 30.117188 13.042969 30 15.566406 C 29.988281 15.800781 29.976562 16.039062 29.992188 16.273438 Z M 29.992188 16.273438 "/>
<path style=" stroke:none;fill-rule:nonzero;fill:rgb(99.607843%,99.607843%,99.607843%);fill-opacity:1;" d="M 52.507812 27.730469 C 53.421875 28.210938 54.117188 28.933594 54.429688 29.933594 C 54.574219 30.390625 54.621094 30.875 54.507812 31.347656 L 54.035156 31.324219 C 53.492188 30.9375 52.925781 30.378906 52.558594 29.824219 C 52.410156 29.160156 52.488281 28.40625 52.507812 27.730469 Z M 52.507812 27.730469 "/>
<path style=" stroke:none;fill-rule:nonzero;fill:rgb(83.137256%,83.137256%,83.529413%);fill-opacity:1;" d="M 25.339844 30.976562 C 25.367188 30.984375 25.390625 30.992188 25.414062 31 C 25.785156 31.128906 26.117188 31.375 26.496094 31.507812 C 28.0625 32.050781 29.792969 32 31.363281 31.503906 C 31.25 31.925781 31.089844 32.3125 30.828125 32.664062 C 30.800781 32.703125 30.769531 32.742188 30.738281 32.777344 C 30.707031 32.816406 30.675781 32.851562 30.644531 32.890625 C 30.609375 32.925781 30.574219 32.960938 30.539062 32.996094 C 30.507812 33.027344 30.46875 33.0625 30.433594 33.097656 C 30.398438 33.128906 30.363281 33.160156 30.324219 33.191406 C 30.285156 33.222656 30.246094 33.253906 30.207031 33.28125 C 30.167969 33.308594 30.128906 33.335938 30.089844 33.363281 C 30.046875 33.390625 30.003906 33.417969 29.960938 33.441406 C 29.921875 33.464844 29.878906 33.488281 29.832031 33.511719 C 29.792969 33.535156 29.746094 33.554688 29.703125 33.578125 C 29.660156 33.597656 29.613281 33.617188 29.570312 33.632812 C 29.523438 33.652344 29.476562 33.671875 29.429688 33.683594 C 29.386719 33.699219 29.335938 33.714844 29.292969 33.730469 C 29.246094 33.742188 29.199219 33.753906 29.148438 33.765625 C 29.101562 33.777344 29.054688 33.789062 29.003906 33.796875 C 28.957031 33.804688 28.910156 33.8125 28.859375 33.816406 C 28.015625 33.925781 27.113281 33.664062 26.445312 33.140625 C 25.738281 32.578125 25.445312 31.855469 25.339844 30.976562 Z M 25.339844 30.976562 "/>
<path style=" stroke:none;fill-rule:nonzero;fill:rgb(99.607843%,99.607843%,99.607843%);fill-opacity:1;" d="M 27.535156 27.769531 C 27.546875 28.625 27.285156 30.46875 27.953125 31.082031 C 28.1875 31.300781 28.503906 31.351562 28.816406 31.328125 C 29.15625 31.296875 29.460938 31.171875 29.671875 30.898438 C 30.207031 30.214844 29.953125 29.035156 30.003906 28.222656 C 30.660156 28.628906 31.125 29.347656 31.300781 30.097656 C 31.40625 30.558594 31.390625 31.035156 31.363281 31.503906 C 29.792969 32 28.0625 32.050781 26.496094 31.507812 C 26.117188 31.375 25.785156 31.128906 25.414062 31 C 25.390625 30.992188 25.367188 30.984375 25.339844 30.976562 C 25.351562 30.507812 25.40625 30.0625 25.578125 29.625 C 25.941406 28.714844 26.660156 28.152344 27.535156 27.769531 Z M 27.535156 27.769531 "/>
<path style=" stroke:none;fill-rule:nonzero;fill:rgb(83.137256%,83.137256%,83.529413%);fill-opacity:1;" d="M 50.066406 28.398438 C 50.066406 28.414062 50.066406 28.429688 50.066406 28.445312 C 50.113281 29.191406 49.820312 30.503906 50.417969 31.078125 C 50.460938 31.121094 50.507812 31.152344 50.558594 31.1875 C 50.894531 31.039062 51.378906 31.265625 51.726562 31.085938 C 52.121094 30.886719 52.199219 30.402344 52.5 30.144531 C 52.515625 30.132812 52.527344 30.121094 52.539062 30.109375 C 52.539062 30.015625 52.550781 29.921875 52.558594 29.824219 C 52.925781 30.378906 53.492188 30.9375 54.035156 31.324219 L 54.507812 31.347656 C 54.496094 31.394531 54.484375 31.441406 54.472656 31.492188 C 54.460938 31.539062 54.445312 31.585938 54.429688 31.632812 C 54.414062 31.679688 54.398438 31.726562 54.378906 31.773438 C 54.363281 31.820312 54.34375 31.863281 54.324219 31.910156 C 54.304688 31.957031 54.285156 32 54.261719 32.046875 C 54.238281 32.089844 54.21875 32.132812 54.191406 32.175781 C 54.167969 32.21875 54.144531 32.261719 54.117188 32.304688 C 54.089844 32.347656 54.0625 32.390625 54.035156 32.429688 C 54.007812 32.472656 53.980469 32.511719 53.949219 32.550781 C 53.917969 32.589844 53.886719 32.628906 53.855469 32.667969 C 53.824219 32.703125 53.792969 32.742188 53.757812 32.777344 C 53.722656 32.8125 53.691406 32.847656 53.652344 32.882812 C 53.621094 32.917969 53.582031 32.953125 53.546875 32.984375 C 53.507812 33.019531 53.472656 33.050781 53.433594 33.082031 C 53.394531 33.113281 53.355469 33.140625 53.3125 33.171875 C 53.273438 33.199219 53.234375 33.226562 53.191406 33.253906 C 53.152344 33.28125 53.109375 33.308594 53.070312 33.332031 C 53.027344 33.359375 52.984375 33.382812 52.941406 33.40625 C 52.902344 33.425781 52.855469 33.449219 52.8125 33.46875 C 52.769531 33.492188 52.722656 33.511719 52.679688 33.527344 C 52.636719 33.546875 52.589844 33.566406 52.542969 33.582031 C 52.5 33.597656 52.449219 33.613281 52.40625 33.625 C 52.359375 33.640625 52.3125 33.652344 52.265625 33.664062 C 52.21875 33.675781 52.167969 33.6875 52.121094 33.695312 C 52.074219 33.703125 52.027344 33.710938 51.980469 33.71875 C 51.929688 33.726562 51.882812 33.730469 51.835938 33.738281 C 51.785156 33.738281 51.738281 33.742188 51.691406 33.746094 C 51.640625 33.75 51.589844 33.75 51.542969 33.75 C 51.496094 33.75 51.445312 33.746094 51.398438 33.742188 C 51.347656 33.738281 51.300781 33.738281 51.253906 33.730469 C 51.203125 33.726562 51.15625 33.71875 51.109375 33.710938 C 51.0625 33.703125 51.015625 33.695312 50.964844 33.683594 C 50.917969 33.675781 50.871094 33.664062 50.824219 33.652344 C 50.777344 33.640625 50.730469 33.625 50.683594 33.613281 C 50.636719 33.597656 50.59375 33.582031 50.546875 33.566406 C 50.5 33.546875 50.457031 33.527344 50.410156 33.511719 C 50.367188 33.492188 50.324219 33.472656 50.28125 33.449219 C 50.238281 33.425781 50.195312 33.40625 50.152344 33.382812 C 50.109375 33.359375 50.066406 33.335938 50.027344 33.308594 C 49.984375 33.28125 49.945312 33.257812 49.902344 33.230469 C 49.863281 33.203125 49.824219 33.175781 49.785156 33.144531 C 49.75 33.113281 49.710938 33.085938 49.675781 33.050781 C 49.636719 33.019531 49.601562 32.988281 49.566406 32.957031 C 49.53125 32.921875 49.496094 32.886719 49.464844 32.851562 C 49.429688 32.820312 49.394531 32.785156 49.363281 32.746094 C 49.332031 32.710938 49.300781 32.671875 49.269531 32.632812 C 49.242188 32.597656 49.210938 32.558594 49.183594 32.519531 C 49.15625 32.480469 49.128906 32.4375 49.101562 32.398438 C 49.078125 32.355469 49.054688 32.316406 49.03125 32.277344 C 49.007812 32.238281 48.984375 32.195312 48.964844 32.152344 C 48.945312 32.109375 48.925781 32.066406 48.90625 32.023438 C 48.886719 31.980469 48.867188 31.9375 48.851562 31.894531 C 48.835938 31.851562 48.816406 31.808594 48.804688 31.761719 C 48.789062 31.71875 48.777344 31.671875 48.765625 31.628906 C 48.75 31.582031 48.738281 31.535156 48.730469 31.492188 C 48.722656 31.445312 48.710938 31.398438 48.703125 31.351562 C 48.695312 31.304688 48.691406 31.261719 48.683594 31.210938 C 48.679688 31.164062 48.675781 31.121094 48.671875 31.074219 C 48.667969 31.027344 48.667969 30.976562 48.664062 30.933594 C 48.664062 30.886719 48.664062 30.839844 48.667969 30.792969 C 48.667969 30.742188 48.671875 30.699219 48.675781 30.652344 C 48.679688 30.605469 48.683594 30.558594 48.691406 30.511719 C 48.699219 30.464844 48.707031 30.417969 48.714844 30.371094 C 48.722656 30.324219 48.730469 30.28125 48.742188 30.234375 C 48.925781 29.453125 49.382812 28.816406 50.066406 28.398438 Z M 50.066406 28.398438 "/>
<path style=" stroke:none;fill-rule:nonzero;fill:rgb(94.117647%,73.725492%,31.37255%);fill-opacity:1;" d="M 50.558594 31.1875 C 50.894531 31.039062 51.378906 31.265625 51.726562 31.085938 C 52.121094 30.886719 52.199219 30.402344 52.5 30.144531 C 52.515625 30.132812 52.527344 30.121094 52.539062 30.109375 C 52.503906 30.5625 52.425781 30.980469 52.050781 31.289062 C 52.027344 31.308594 52 31.328125 51.972656 31.347656 C 51.941406 31.367188 51.914062 31.386719 51.886719 31.402344 C 51.855469 31.417969 51.824219 31.433594 51.792969 31.445312 C 51.761719 31.457031 51.730469 31.46875 51.699219 31.476562 C 51.664062 31.488281 51.628906 31.496094 51.597656 31.503906 C 51.5625 31.507812 51.53125 31.511719 51.496094 31.515625 C 51.464844 31.519531 51.429688 31.519531 51.394531 31.519531 C 51.363281 31.519531 51.328125 31.515625 51.292969 31.511719 C 51.023438 31.484375 50.773438 31.347656 50.558594 31.1875 Z M 50.558594 31.1875 "/>
<path style=" stroke:none;fill-rule:nonzero;fill:rgb(14.901961%,24.705882%,42.745098%);fill-opacity:1;" d="M 16.996094 16.628906 C 17.207031 16.457031 17.46875 16.339844 17.738281 16.300781 C 18.945312 16.121094 20.65625 16.257812 21.925781 16.257812 L 25.546875 16.253906 C 26.21875 16.253906 26.90625 16.222656 27.578125 16.269531 C 27.535156 18.386719 27.527344 20.503906 27.546875 22.617188 L 20.070312 22.625 C 20.070312 21.976562 20.074219 21.328125 20.085938 20.683594 C 20.097656 19.589844 20.246094 18.382812 19.433594 17.519531 C 18.777344 16.828125 18.136719 16.816406 17.261719 16.757812 C 17.121094 16.746094 17.089844 16.730469 16.996094 16.628906 Z M 16.996094 16.628906 "/>
<path style=" stroke:none;fill-rule:nonzero;fill:rgb(14.901961%,24.705882%,42.745098%);fill-opacity:1;" d="M 58.289062 16.265625 L 60.410156 16.257812 C 60.902344 16.257812 61.425781 16.222656 61.914062 16.308594 C 62.1875 16.359375 62.464844 16.457031 62.695312 16.621094 C 62.679688 16.628906 62.664062 16.632812 62.644531 16.640625 C 62.445312 16.722656 62.195312 16.714844 61.980469 16.769531 C 61.398438 16.917969 60.898438 17.4375 60.644531 17.96875 C 60.402344 18.488281 60.363281 19.097656 60.351562 19.660156 C 60.339844 20.246094 60.621094 22.277344 60.011719 22.519531 C 59.433594 22.75 56.132812 22.644531 55.296875 22.609375 C 54.382812 22.628906 53.460938 22.59375 52.546875 22.59375 C 52.542969 21.863281 52.542969 21.132812 52.550781 20.398438 C 52.554688 19.96875 52.601562 19.460938 52.511719 19.039062 C 52.480469 18.128906 52.566406 17.203125 52.476562 16.292969 C 53.140625 16.214844 53.855469 16.261719 54.523438 16.261719 Z M 58.289062 16.265625 "/>
<path style=" stroke:none;fill-rule:nonzero;fill:rgb(98.039216%,75.686276%,47.058824%);fill-opacity:1;" d="M 27.578125 16.269531 C 27.675781 15.398438 27.667969 14.523438 27.832031 13.65625 C 28.351562 10.933594 30.003906 8.292969 32.167969 6.566406 C 34.753906 4.511719 38.019531 3.464844 41.316406 3.847656 C 41.417969 3.859375 41.523438 3.875 41.625 3.886719 C 41.730469 3.902344 41.832031 3.917969 41.933594 3.9375 C 42.035156 3.957031 42.136719 3.972656 42.238281 3.992188 C 42.34375 4.011719 42.445312 4.035156 42.546875 4.054688 C 42.644531 4.078125 42.746094 4.101562 42.847656 4.125 C 42.949219 4.152344 43.050781 4.175781 43.152344 4.203125 C 43.253906 4.230469 43.351562 4.257812 43.449219 4.289062 C 43.550781 4.320312 43.648438 4.351562 43.75 4.382812 C 43.847656 4.414062 43.945312 4.445312 44.042969 4.480469 C 44.140625 4.515625 44.238281 4.550781 44.335938 4.589844 C 44.433594 4.625 44.53125 4.664062 44.628906 4.703125 C 44.722656 4.742188 44.820312 4.78125 44.914062 4.824219 C 45.011719 4.867188 45.105469 4.910156 45.199219 4.953125 C 45.292969 4.996094 45.386719 5.039062 45.480469 5.089844 C 45.570312 5.132812 45.664062 5.179688 45.757812 5.230469 C 45.847656 5.277344 45.9375 5.328125 46.03125 5.378906 C 46.121094 5.429688 46.210938 5.480469 46.300781 5.535156 C 46.390625 5.585938 46.480469 5.640625 46.566406 5.695312 C 46.65625 5.75 46.742188 5.804688 46.828125 5.863281 C 46.914062 5.921875 47.003906 5.976562 47.089844 6.039062 C 47.171875 6.097656 47.257812 6.15625 47.34375 6.21875 C 47.425781 6.28125 47.507812 6.34375 47.589844 6.40625 C 47.671875 6.46875 47.753906 6.535156 47.835938 6.601562 C 47.917969 6.664062 47.996094 6.730469 48.074219 6.796875 C 48.152344 6.863281 48.230469 6.933594 48.308594 7.003906 C 48.386719 7.070312 48.464844 7.140625 48.539062 7.214844 C 48.617188 7.285156 48.691406 7.355469 48.765625 7.429688 C 48.839844 7.503906 48.914062 7.578125 48.984375 7.652344 C 49.054688 7.726562 49.128906 7.800781 49.199219 7.878906 C 49.269531 7.953125 49.335938 8.03125 49.40625 8.109375 C 49.472656 8.1875 49.542969 8.265625 49.609375 8.347656 C 49.675781 8.425781 49.742188 8.507812 49.804688 8.589844 C 49.886719 8.691406 49.964844 8.800781 50.042969 8.90625 C 50.121094 9.011719 50.199219 9.117188 50.273438 9.226562 C 50.347656 9.335938 50.417969 9.445312 50.492188 9.558594 C 50.5625 9.667969 50.632812 9.78125 50.699219 9.894531 C 50.765625 10.007812 50.832031 10.121094 50.898438 10.238281 C 50.960938 10.351562 51.023438 10.46875 51.082031 10.585938 C 51.144531 10.703125 51.199219 10.820312 51.257812 10.941406 C 51.3125 11.0625 51.367188 11.179688 51.421875 11.300781 C 51.472656 11.421875 51.523438 11.542969 51.574219 11.667969 C 51.621094 11.789062 51.667969 11.914062 51.710938 12.035156 C 51.757812 12.160156 51.800781 12.285156 51.84375 12.410156 C 51.882812 12.535156 51.921875 12.664062 51.957031 12.789062 C 51.996094 12.914062 52.03125 13.042969 52.0625 13.171875 C 52.097656 13.300781 52.128906 13.425781 52.15625 13.554688 C 52.183594 13.683594 52.210938 13.8125 52.238281 13.941406 C 52.261719 14.074219 52.285156 14.203125 52.304688 14.332031 C 52.402344 14.984375 52.386719 15.644531 52.476562 16.292969 C 52.566406 17.203125 52.480469 18.128906 52.511719 19.039062 C 52.5 21.042969 52.503906 23.042969 52.515625 25.042969 C 52.515625 25.929688 52.457031 26.847656 52.507812 27.730469 C 52.488281 28.40625 52.410156 29.160156 52.558594 29.824219 C 52.550781 29.921875 52.539062 30.015625 52.539062 30.109375 C 52.527344 30.121094 52.515625 30.132812 52.5 30.144531 C 52.199219 30.402344 52.121094 30.886719 51.726562 31.085938 C 51.378906 31.265625 50.894531 31.039062 50.558594 31.1875 C 50.507812 31.152344 50.460938 31.121094 50.417969 31.078125 C 49.820312 30.503906 50.113281 29.191406 50.066406 28.445312 C 50.066406 28.429688 50.066406 28.414062 50.066406 28.398438 C 49.972656 27.773438 50.039062 27.058594 50.039062 26.429688 L 50.050781 22.566406 C 50.078125 21.140625 50.054688 19.707031 50.054688 18.28125 C 50.050781 17.605469 50.03125 16.925781 50.074219 16.25 C 50.101562 15.726562 50.023438 15.207031 49.925781 14.691406 C 49.554688 12.710938 48.644531 10.929688 47.292969 9.4375 C 47.242188 9.375 47.1875 9.316406 47.132812 9.261719 C 47.082031 9.203125 47.023438 9.144531 46.96875 9.089844 C 46.914062 9.035156 46.855469 8.976562 46.800781 8.921875 C 46.742188 8.867188 46.6875 8.8125 46.628906 8.757812 C 46.570312 8.703125 46.507812 8.652344 46.449219 8.597656 C 46.390625 8.546875 46.328125 8.496094 46.269531 8.445312 C 46.207031 8.394531 46.144531 8.34375 46.082031 8.292969 C 46.023438 8.246094 45.957031 8.195312 45.894531 8.148438 C 45.832031 8.101562 45.769531 8.054688 45.703125 8.007812 C 45.640625 7.960938 45.574219 7.917969 45.507812 7.871094 C 45.441406 7.828125 45.375 7.785156 45.308594 7.742188 C 45.242188 7.699219 45.175781 7.65625 45.105469 7.613281 C 45.039062 7.574219 44.972656 7.53125 44.902344 7.492188 C 44.832031 7.453125 44.765625 7.414062 44.695312 7.378906 C 44.625 7.339844 44.554688 7.304688 44.484375 7.265625 C 44.414062 7.230469 44.34375 7.195312 44.269531 7.160156 C 44.199219 7.125 44.128906 7.09375 44.054688 7.058594 C 43.984375 7.027344 43.910156 6.996094 43.839844 6.964844 C 43.765625 6.933594 43.691406 6.902344 43.617188 6.875 C 43.542969 6.847656 43.46875 6.816406 43.394531 6.789062 C 43.320312 6.761719 43.246094 6.738281 43.167969 6.710938 C 43.09375 6.6875 43.019531 6.660156 42.941406 6.640625 C 42.867188 6.613281 42.792969 6.589844 42.714844 6.570312 C 42.636719 6.550781 42.5625 6.527344 42.484375 6.507812 C 42.40625 6.488281 42.332031 6.46875 42.253906 6.453125 C 42.175781 6.433594 42.097656 6.417969 42.019531 6.402344 C 41.941406 6.386719 41.863281 6.371094 41.785156 6.355469 C 41.707031 6.34375 41.628906 6.328125 41.550781 6.316406 C 41.472656 6.304688 41.394531 6.292969 41.316406 6.285156 C 41.238281 6.273438 41.160156 6.265625 41.082031 6.257812 C 41 6.25 40.921875 6.242188 40.84375 6.234375 C 40.761719 6.230469 40.683594 6.222656 40.605469 6.21875 C 40.523438 6.214844 40.4375 6.210938 40.355469 6.210938 C 40.273438 6.207031 40.1875 6.207031 40.105469 6.207031 C 40.019531 6.207031 39.9375 6.207031 39.855469 6.207031 C 39.769531 6.210938 39.6875 6.214844 39.601562 6.21875 C 39.519531 6.222656 39.4375 6.226562 39.351562 6.230469 C 39.269531 6.238281 39.1875 6.246094 39.101562 6.253906 C 39.019531 6.261719 38.9375 6.269531 38.855469 6.28125 C 38.769531 6.289062 38.6875 6.300781 38.605469 6.316406 C 38.523438 6.328125 38.441406 6.339844 38.359375 6.355469 C 38.273438 6.367188 38.191406 6.386719 38.113281 6.402344 C 38.027344 6.417969 37.949219 6.433594 37.867188 6.453125 C 37.785156 6.472656 37.703125 6.492188 37.621094 6.511719 C 37.539062 6.53125 37.460938 6.550781 37.378906 6.574219 C 37.300781 6.597656 37.21875 6.621094 37.136719 6.644531 C 37.058594 6.667969 36.980469 6.695312 36.902344 6.71875 C 36.820312 6.746094 36.742188 6.773438 36.664062 6.804688 C 36.585938 6.832031 36.507812 6.859375 36.429688 6.890625 C 36.351562 6.921875 36.273438 6.953125 36.195312 6.984375 C 36.117188 7.015625 36.042969 7.050781 35.964844 7.082031 C 35.886719 7.117188 35.8125 7.152344 35.738281 7.1875 C 35.664062 7.222656 35.585938 7.261719 35.511719 7.296875 C 35.4375 7.335938 35.363281 7.375 35.292969 7.414062 C 35.21875 7.453125 35.144531 7.496094 35.070312 7.535156 C 35 7.578125 34.925781 7.621094 34.855469 7.664062 C 34.785156 7.707031 34.714844 7.75 34.640625 7.792969 C 34.570312 7.839844 34.503906 7.886719 34.433594 7.933594 C 34.363281 7.980469 34.296875 8.027344 34.226562 8.074219 C 34.160156 8.125 34.089844 8.171875 34.023438 8.222656 C 33.957031 8.273438 33.890625 8.324219 33.824219 8.375 C 33.761719 8.425781 33.695312 8.480469 33.628906 8.535156 C 33.566406 8.585938 33.503906 8.640625 33.4375 8.695312 C 33.375 8.75 33.3125 8.804688 33.253906 8.863281 C 31.386719 10.550781 30.117188 13.042969 30 15.566406 C 29.988281 15.800781 29.976562 16.039062 29.992188 16.273438 C 30.023438 18.398438 30 20.527344 29.996094 22.652344 L 29.992188 26.253906 C 29.988281 26.890625 29.894531 27.597656 30.003906 28.222656 C 29.953125 29.035156 30.207031 30.214844 29.671875 30.898438 C 29.460938 31.171875 29.15625 31.296875 28.816406 31.328125 C 28.503906 31.351562 28.1875 31.300781 27.953125 31.082031 C 27.285156 30.46875 27.546875 28.625 27.535156 27.769531 L 27.546875 22.617188 C 27.527344 20.503906 27.535156 18.386719 27.578125 16.269531 Z M 27.578125 16.269531 "/>
<path style=" stroke:none;fill-rule:nonzero;fill:rgb(92.54902%,50.588238%,38.431373%);fill-opacity:1;" d="M 40.023438 34.046875 C 41.371094 35.046875 42.886719 35.871094 44.3125 36.757812 L 51.71875 41.40625 C 52.410156 41.839844 54.277344 42.839844 54.738281 43.363281 C 54.214844 43.886719 53.703125 44.425781 53.199219 44.96875 C 52.617188 45.597656 52.046875 46.25 51.375 46.785156 C 51.453125 46.007812 51.417969 45.289062 50.894531 44.65625 C 50.210938 43.835938 49.144531 43.550781 48.121094 43.46875 C 46.839844 43.367188 45.546875 43.59375 44.296875 43.851562 C 43.703125 42.089844 42.738281 39.320312 40.980469 38.457031 C 40.453125 38.203125 39.863281 38.160156 39.308594 38.355469 C 37.972656 38.820312 37.183594 40.324219 36.617188 41.519531 C 36.261719 42.265625 35.949219 43.015625 35.710938 43.808594 C 33.742188 43.488281 31.316406 43.101562 29.585938 44.359375 C 29.105469 44.707031 28.761719 45.183594 28.660156 45.78125 C 28.453125 46.992188 29.25 48.238281 29.9375 49.160156 C 30.476562 49.890625 31.066406 50.585938 31.664062 51.269531 C 30.628906 52.550781 28.46875 54.976562 28.640625 56.695312 C 28.683594 57.160156 28.90625 57.5625 29.273438 57.851562 C 30.664062 58.957031 33.710938 58.652344 35.40625 58.425781 C 35.480469 58.414062 35.554688 58.402344 35.625 58.386719 C 36.210938 59.929688 36.789062 61.398438 37.820312 62.710938 C 37.027344 63.480469 35.722656 64.648438 34.777344 65.210938 C 33.699219 64.667969 32.679688 63.964844 31.660156 63.320312 L 25.019531 59.042969 L 25.035156 43.316406 C 26.535156 42.359375 28.074219 41.453125 29.589844 40.511719 Z M 40.023438 34.046875 "/>
<path style=" stroke:none;fill-rule:nonzero;fill:rgb(14.901961%,24.705882%,42.745098%);fill-opacity:1;" d="M 29.992188 16.273438 C 32.269531 16.195312 34.566406 16.257812 36.847656 16.257812 L 50.074219 16.25 C 50.03125 16.925781 50.050781 17.605469 50.054688 18.28125 C 50.054688 19.707031 50.078125 21.140625 50.050781 22.566406 L 34.703125 22.570312 C 33.878906 22.574219 33.054688 22.554688 32.238281 22.582031 C 31.484375 22.605469 30.75 22.664062 29.996094 22.652344 C 30 20.527344 30.023438 18.398438 29.992188 16.273438 Z M 29.992188 16.273438 "/>
<path style=" stroke:none;fill-rule:nonzero;fill:rgb(99.607843%,99.607843%,99.607843%);fill-opacity:1;" d="M 35.710938 43.808594 C 35.949219 43.015625 36.261719 42.265625 36.617188 41.519531 C 37.183594 40.324219 37.972656 38.820312 39.308594 38.355469 C 39.863281 38.160156 40.453125 38.203125 40.980469 38.457031 C 42.738281 39.320312 43.703125 42.089844 44.296875 43.851562 C 45.546875 43.59375 46.839844 43.367188 48.121094 43.46875 C 49.144531 43.550781 50.210938 43.835938 50.894531 44.65625 C 51.417969 45.289062 51.453125 46.007812 51.375 46.785156 C 50.71875 48.605469 49.636719 49.953125 48.359375 51.367188 C 49.234375 52.410156 51.636719 54.96875 51.539062 56.359375 C 51.5 56.933594 51.105469 57.503906 50.675781 57.863281 C 49.351562 58.972656 47.152344 58.957031 45.515625 58.796875 C 45.046875 58.746094 44.582031 58.683594 44.117188 58.601562 C 43.398438 60.234375 42.523438 63.117188 40.714844 63.796875 C 40.140625 64.011719 39.53125 63.90625 38.992188 63.648438 C 38.535156 63.425781 38.152344 63.09375 37.820312 62.710938 C 36.789062 61.398438 36.210938 59.929688 35.625 58.386719 C 35.554688 58.402344 35.480469 58.414062 35.40625 58.425781 C 33.710938 58.652344 30.664062 58.957031 29.273438 57.851562 C 28.90625 57.5625 28.683594 57.160156 28.640625 56.695312 C 28.46875 54.976562 30.628906 52.550781 31.664062 51.269531 C 31.066406 50.585938 30.476562 49.890625 29.9375 49.160156 C 29.25 48.238281 28.453125 46.992188 28.660156 45.78125 C 28.761719 45.183594 29.105469 44.707031 29.585938 44.359375 C 31.316406 43.101562 33.742188 43.488281 35.710938 43.808594 Z M 35.710938 43.808594 "/>
<path style=" stroke:none;fill-rule:nonzero;fill:rgb(86.274511%,27.450982%,36.078432%);fill-opacity:1;" d="M 46.914062 49.902344 C 47.332031 49.527344 48.476562 48.597656 49.027344 48.566406 C 48.535156 49.21875 47.988281 49.816406 47.402344 50.390625 Z M 46.914062 49.902344 "/>
<path style=" stroke:none;fill-rule:nonzero;fill:rgb(86.274511%,27.450982%,36.078432%);fill-opacity:1;" d="M 36.328125 55.363281 C 36.492188 55.417969 38.28125 56.503906 38.328125 56.578125 L 38.152344 56.621094 C 37.640625 56.699219 37.128906 56.796875 36.621094 56.902344 C 36.539062 56.386719 36.417969 55.875 36.328125 55.363281 Z M 36.328125 55.363281 "/>
<path style=" stroke:none;fill-rule:nonzero;fill:rgb(92.54902%,50.588238%,38.431373%);fill-opacity:1;" d="M 34.597656 50.113281 C 34.75 50.328125 34.648438 51.914062 34.648438 52.277344 C 34.414062 52.128906 34.199219 51.945312 33.984375 51.769531 L 33.457031 51.25 C 33.804688 50.839844 34.203125 50.476562 34.597656 50.113281 Z M 34.597656 50.113281 "/>
<path style=" stroke:none;fill-rule:nonzero;fill:rgb(86.274511%,27.450982%,36.078432%);fill-opacity:1;" d="M 43.550781 55.394531 L 43.582031 55.449219 C 43.566406 55.996094 43.359375 56.574219 43.21875 57.101562 C 42.835938 56.996094 42.460938 56.871094 42.082031 56.738281 C 41.925781 56.6875 41.769531 56.617188 41.613281 56.554688 C 42.285156 56.195312 42.917969 55.820312 43.550781 55.394531 Z M 43.550781 55.394531 "/>
<path style=" stroke:none;fill-rule:nonzero;fill:rgb(86.274511%,27.450982%,36.078432%);fill-opacity:1;" d="M 45.273438 50.085938 C 45.65625 50.265625 46.25 51.003906 46.53125 51.34375 L 45.894531 51.972656 C 45.683594 52.191406 45.449219 52.390625 45.226562 52.59375 C 45.34375 51.769531 45.285156 50.917969 45.273438 50.085938 Z M 45.273438 50.085938 "/>
<path style=" stroke:none;fill-rule:nonzero;fill:rgb(92.54902%,50.588238%,38.431373%);fill-opacity:1;" d="M 36.660156 45.382812 C 37.253906 45.574219 37.84375 45.765625 38.425781 45.988281 C 38.058594 46.199219 37.6875 46.414062 37.324219 46.632812 C 37.011719 46.867188 36.625 47.0625 36.292969 47.265625 C 36.398438 46.636719 36.519531 46.007812 36.660156 45.382812 Z M 36.660156 45.382812 "/>
<path style=" stroke:none;fill-rule:nonzero;fill:rgb(92.54902%,50.588238%,38.431373%);fill-opacity:1;" d="M 43.25 45.4375 C 43.296875 45.4375 43.328125 45.460938 43.367188 45.484375 C 43.632812 45.84375 43.671875 46.816406 43.730469 47.273438 C 43.410156 47.097656 43.097656 46.914062 42.792969 46.714844 C 42.410156 46.476562 42.023438 46.25 41.628906 46.039062 C 42.167969 45.832031 42.703125 45.625 43.25 45.4375 Z M 43.25 45.4375 "/>
<path style=" stroke:none;fill-rule:nonzero;fill:rgb(86.274511%,27.450982%,36.078432%);fill-opacity:1;" d="M 32.507812 52.257812 C 33.253906 52.949219 34.058594 53.582031 34.777344 54.300781 C 35.023438 55.234375 35.160156 56.199219 35.382812 57.136719 C 34.609375 57.242188 33.835938 57.296875 33.058594 57.304688 C 32.304688 57.304688 31.023438 57.40625 30.417969 56.894531 C 30.230469 56.738281 30.132812 56.523438 30.117188 56.277344 C 30.039062 55.117188 31.757812 53.136719 32.507812 52.257812 Z M 32.507812 52.257812 "/>
<path style=" stroke:none;fill-rule:nonzero;fill:rgb(86.274511%,27.450982%,36.078432%);fill-opacity:1;" d="M 39.890625 57.34375 C 40.851562 57.734375 41.847656 58.027344 42.832031 58.359375 C 42.746094 58.59375 42.65625 58.824219 42.566406 59.058594 C 42.054688 60.351562 41.480469 61.980469 40.117188 62.570312 C 39.878906 62.535156 39.6875 62.464844 39.476562 62.339844 C 38.207031 61.582031 37.445312 59.5625 37.113281 58.203125 C 38.042969 57.910156 38.996094 57.742188 39.890625 57.34375 Z M 39.890625 57.34375 "/>
<path style=" stroke:none;fill-rule:nonzero;fill:rgb(86.274511%,27.450982%,36.078432%);fill-opacity:1;" d="M 47.472656 52.347656 C 47.5 52.371094 47.527344 52.394531 47.554688 52.417969 C 48.238281 53.058594 50.167969 55.417969 50.179688 56.269531 C 50.183594 56.503906 50.089844 56.722656 49.921875 56.886719 C 49.351562 57.453125 48.105469 57.527344 47.347656 57.539062 C 46.394531 57.546875 45.476562 57.484375 44.527344 57.367188 C 44.71875 56.398438 44.902344 55.429688 45.078125 54.457031 C 45.898438 53.769531 46.695312 53.082031 47.472656 52.347656 Z M 47.472656 52.347656 "/>
<path style=" stroke:none;fill-rule:nonzero;fill:rgb(92.54902%,50.588238%,38.431373%);fill-opacity:1;" d="M 32.308594 44.820312 C 33.304688 44.734375 34.332031 44.933594 35.300781 45.160156 C 35.105469 46.171875 34.886719 47.226562 34.796875 48.253906 C 34.480469 48.582031 34.105469 48.855469 33.761719 49.15625 C 33.433594 49.441406 33.125 49.753906 32.8125 50.058594 L 32.621094 50.273438 C 32.558594 50.230469 32.5 50.1875 32.441406 50.136719 C 31.519531 49.371094 30.125 47.5625 30.03125 46.347656 C 30.003906 46.019531 30.078125 45.742188 30.292969 45.492188 C 30.773438 44.941406 31.628906 44.871094 32.308594 44.820312 Z M 32.308594 44.820312 "/>
<path style=" stroke:none;fill-rule:nonzero;fill:rgb(92.54902%,50.588238%,38.431373%);fill-opacity:1;" d="M 44.671875 45.144531 C 44.96875 45.058594 45.261719 44.988281 45.566406 44.933594 C 45.863281 44.878906 46.167969 44.835938 46.472656 44.804688 C 47.460938 44.710938 48.957031 44.617188 49.769531 45.316406 C 50.003906 45.519531 50.128906 45.78125 50.140625 46.085938 C 50.179688 46.875 49.546875 48 49.027344 48.566406 C 48.476562 48.597656 47.332031 49.527344 46.914062 49.902344 C 46.371094 49.363281 45.796875 48.835938 45.179688 48.386719 C 45.058594 47.289062 44.902344 46.222656 44.671875 45.144531 Z M 44.671875 45.144531 "/>
<path style=" stroke:none;fill-rule:nonzero;fill:rgb(92.54902%,50.588238%,38.431373%);fill-opacity:1;" d="M 39.808594 39.578125 C 40.105469 39.542969 40.289062 39.550781 40.554688 39.699219 C 41.667969 40.3125 42.710938 42.914062 43.046875 44.148438 C 42.09375 44.492188 41.152344 44.875 40.203125 45.234375 C 39.675781 45.074219 39.164062 44.855469 38.648438 44.671875 C 38.101562 44.476562 37.546875 44.308594 36.992188 44.136719 C 37.128906 43.71875 37.265625 43.296875 37.425781 42.886719 C 37.910156 41.625 38.503906 40.160156 39.808594 39.578125 Z M 39.808594 39.578125 "/>
<path style=" stroke:none;fill-rule:nonzero;fill:rgb(24.705882%,35.294119%,53.725493%);fill-opacity:1;" d="M 40.074219 46.757812 C 41.046875 46.960938 43.164062 48.421875 43.960938 49.085938 C 43.984375 49.980469 44.007812 50.878906 43.976562 51.773438 C 43.957031 52.398438 43.894531 53.019531 43.859375 53.640625 C 43.203125 54.074219 40.652344 55.890625 39.96875 55.867188 C 39.253906 55.507812 38.546875 55.148438 37.867188 54.730469 C 37.277344 54.367188 36.722656 53.964844 36.144531 53.582031 C 35.746094 52.1875 35.929688 50.511719 36.023438 49.078125 C 37.242188 48.136719 38.628906 47.296875 40.074219 46.757812 Z M 40.074219 46.757812 "/>
<path style=" stroke:none;fill-rule:nonzero;fill:rgb(99.607843%,99.607843%,99.607843%);fill-opacity:1;" d="M 39.828125 49.777344 C 40.105469 49.757812 40.371094 49.804688 40.613281 49.933594 C 40.957031 50.113281 41.191406 50.433594 41.308594 50.800781 C 41.4375 51.222656 41.417969 51.707031 41.195312 52.09375 C 40.9375 52.546875 40.527344 52.703125 40.050781 52.824219 C 39.714844 52.789062 39.421875 52.75 39.128906 52.566406 C 38.777344 52.34375 38.542969 51.976562 38.457031 51.574219 C 38.449219 51.546875 38.449219 51.523438 38.441406 51.496094 C 38.4375 51.472656 38.433594 51.445312 38.433594 51.421875 C 38.429688 51.394531 38.425781 51.371094 38.425781 51.34375 C 38.425781 51.320312 38.421875 51.292969 38.421875 51.269531 C 38.421875 51.242188 38.421875 51.21875 38.425781 51.191406 C 38.425781 51.164062 38.425781 51.140625 38.429688 51.113281 C 38.433594 51.089844 38.4375 51.0625 38.4375 51.039062 C 38.441406 51.011719 38.449219 50.988281 38.453125 50.960938 C 38.457031 50.9375 38.464844 50.910156 38.46875 50.886719 C 38.476562 50.863281 38.484375 50.839844 38.488281 50.8125 C 38.496094 50.789062 38.503906 50.761719 38.515625 50.742188 C 38.523438 50.714844 38.535156 50.691406 38.542969 50.667969 C 38.554688 50.644531 38.566406 50.621094 38.574219 50.597656 C 38.585938 50.574219 38.597656 50.550781 38.609375 50.53125 C 38.621094 50.507812 38.636719 50.484375 38.648438 50.464844 C 38.660156 50.441406 38.675781 50.417969 38.691406 50.398438 C 38.964844 50.007812 39.375 49.847656 39.828125 49.777344 Z M 39.828125 49.777344 "/>
</g>
</svg>
